<?xml version="1.0" encoding="UTF-8"?>
<svg version="1.1" xmlns="http://www.w3.org/2000/svg" width="2000" height="1101">
<path d="M0 0 C1.28488312 0.00149048 2.56976624 0.00298096 3.89358521 0.0045166 C24.4452427 0.0472134 44.66443883 0.78790667 65.0625 3.3125 C66.25004883 3.45171875 67.43759766 3.5909375 68.66113281 3.734375 C148.49134851 13.26370719 225.52105747 41.91784138 293.0625 85.3125 C293.67013184 85.70276367 294.27776367 86.09302734 294.90380859 86.49511719 C328.6492623 108.30853231 359.20640141 134.4410854 387.625 162.75 C388.45789551 163.57822266 389.29079102 164.40644531 390.14892578 165.25976562 C394.45008794 169.57222148 398.59682383 173.95820604 402.56762695 178.5769043 C404.45272627 180.76556526 406.41413664 182.87922157 408.375 185 C413.64277516 190.82179979 418.3525052 197.03906226 423.0625 203.3125 C423.71395996 203.05146484 424.36541992 202.79042969 425.03662109 202.52148438 C461.03694903 188.17912453 498.05649554 177.40731605 537.0625 176.3125 C537.97322266 176.28526855 538.88394531 176.25803711 539.82226562 176.22998047 C620.69107704 174.18380908 699.38594846 202.79295296 758.24902344 258.57373047 C768.42929826 268.33462402 778.50173505 278.07649601 787.0625 289.3125 C788.06111869 290.5727104 789.06124011 291.83173081 790.0625 293.08984375 C812.5228904 321.56293502 833.00218442 356.6349979 841.0625 392.3125 C842.3721875 392.34988281 843.681875 392.38726562 845.03125 392.42578125 C878.2970304 393.54626731 910.54905155 399.57342575 942.0625 410.3125 C942.95275879 410.61349609 943.84301758 410.91449219 944.76025391 411.22460938 C980.81103441 423.62711826 1013.58858904 443.3253377 1043.0625 467.3125 C1043.58247559 467.72806152 1044.10245117 468.14362305 1044.63818359 468.57177734 C1053.41399373 475.61273856 1061.40661595 483.44842359 1069.375 491.375 C1070.1430899 492.13518936 1070.1430899 492.13518936 1070.92669678 492.91073608 C1077.77602301 499.70554128 1084.07748478 506.72863832 1090.0625 514.3125 C1091.00381274 515.46988645 1091.94629433 516.62632461 1092.890625 517.78125 C1133.16722479 568.191962 1157.58771856 628.5397697 1166.0625 692.3125 C1166.24039062 693.62444336 1166.24039062 693.62444336 1166.421875 694.96289062 C1177.82793606 783.69932995 1151.8702131 877.42962472 1097.6418457 948.24560547 C1095.49682462 950.97563231 1093.29317902 953.65224516 1091.0625 956.3125 C1090.59956543 956.87018066 1090.13663086 957.42786133 1089.65966797 958.00244141 C1074.02938051 976.78097196 1057.23762732 994.24985895 1037.73583984 1009.03320312 C1036.10605509 1010.27920139 1034.49801939 1011.54852849 1032.89453125 1012.828125 C986.17184341 1049.918169 927.99194154 1071.51236077 869.0625 1078.3125 C868.30381064 1078.40179371 867.54512128 1078.49108743 866.76344134 1078.58308701 C855.90955613 1079.66792773 845.0140337 1079.45321956 834.11940479 1079.44392776 C831.76119887 1079.44557874 829.40299322 1079.44766563 827.04478803 1079.45014787 C821.23435981 1079.45512348 815.42394419 1079.4554663 809.61351437 1079.45385885 C802.6017649 1079.45218312 795.59002177 1079.45633387 788.57827385 1079.4606343 C775.47478154 1079.4684975 762.37129196 1079.47159583 749.26779747 1079.47208023 C735.99018089 1079.47258289 722.71256736 1079.47523258 709.43495178 1079.48048782 C708.59601107 1079.48081796 707.75707036 1079.48114809 706.8927072 1079.48148823 C703.47575012 1079.48283825 700.05879304 1079.48420092 696.64183598 1079.48558033 C656.20256313 1079.50187645 615.76329087 1079.50826819 575.32401529 1079.5130282 C555.18427364 1079.51541216 535.04453232 1079.51911578 514.90479092 1079.5230653 C450.289977 1079.53572942 385.6751631 1079.54651318 321.06034797 1079.54990576 C317.97256839 1079.550068 314.88478881 1079.55023356 311.79700923 1079.55040014 C305.60451088 1079.55073394 299.41201254 1079.55106442 293.21951419 1079.5513947 C285.96974108 1079.5517816 278.71996797 1079.5521712 271.47019486 1079.55256577 C269.39525809 1079.55267818 267.32032131 1079.5527896 265.24538453 1079.55290002 C198.61445692 1079.55644897 131.9835401 1079.57152564 65.3526166 1079.59483776 C17.46974137 1079.61158374 -30.41313182 1079.62705625 -78.29601002 1079.63157272 C-79.77370306 1079.63171295 -79.77370306 1079.63171295 -81.28124849 1079.63185601 C-102.90939241 1079.63387525 -124.5375363 1079.63503114 -146.16568032 1079.6353846 C-153.90512118 1079.63552077 -161.64456205 1079.63572976 -169.38400291 1079.63597785 C-171.30933814 1079.63603941 -173.23467336 1079.63609773 -175.16000858 1079.6361528 C-205.8149039 1079.63707189 -236.46978795 1079.64703131 -267.12467957 1079.66161029 C-298.01048336 1079.67624028 -328.89627333 1079.68125944 -359.78207997 1079.67319075 C-364.05529929 1079.67207546 -368.32851862 1079.67106477 -372.60173798 1079.67011642 C-373.43936174 1079.66992646 -374.27698551 1079.66973649 -375.13999181 1079.66954076 C-388.37315766 1079.66681305 -401.60629785 1079.67412997 -414.83945812 1079.68568979 C-427.86956879 1079.69686139 -440.89964341 1079.69723114 -453.92975467 1079.68631961 C-460.89248661 1079.6807795 -467.85513792 1079.67980158 -474.81786224 1079.69282833 C-481.16485149 1079.70423448 -487.51168057 1079.70156954 -493.85866449 1079.68816125 C-496.12817226 1079.68574607 -498.39769264 1079.68824382 -500.66718647 1079.69655773 C-520.4005166 1079.76403562 -540.02337726 1078.13420672 -559.375 1074.125 C-560.38755859 1073.91705811 -561.40011719 1073.70911621 -562.44335938 1073.49487305 C-613.7051818 1062.48712922 -665.71730052 1036.97826153 -702.3984375 998.8515625 C-704.00277604 997.24722396 -705.68678695 995.81721736 -707.4375 994.375 C-710.63253379 991.68295379 -713.30978477 988.73445397 -716.0078125 985.55078125 C-718.14626295 983.07035188 -720.38385003 980.70043455 -722.625 978.3125 C-761.27687004 935.84823003 -783.43227335 880.47511235 -791.9375 824.3125 C-792.07027344 823.47074219 -792.20304688 822.62898437 -792.33984375 821.76171875 C-796.4325926 794.7679707 -795.31555491 765.14521961 -790.9375 738.3125 C-790.75477539 737.18328125 -790.57205078 736.0540625 -790.38378906 734.890625 C-785.9375236 708.60728234 -777.90818186 682.18649624 -765.9375 658.3125 C-765.49825195 657.42449707 -765.05900391 656.53649414 -764.60644531 655.62158203 C-754.16612286 634.63844241 -741.86772588 615.40104289 -726.9375 597.3125 C-726.31198242 596.54945557 -726.31198242 596.54945557 -725.67382812 595.77099609 C-715.10255481 582.93280604 -703.65691648 570.63699875 -690.5390625 560.36328125 C-688.76866575 558.96769822 -687.03469608 557.5249188 -685.3359375 556.04296875 C-649.40878634 524.72056513 -603.57557385 505.56582374 -557.375 495.875 C-556.14418701 495.61581787 -554.91337402 495.35663574 -553.64526367 495.08959961 C-552.4822876 494.8550708 -551.31931152 494.62054199 -550.12109375 494.37890625 C-549.09556396 494.17209229 -548.07003418 493.96527832 -547.01342773 493.75219727 C-543.61992745 493.26710369 -540.36097599 493.23921458 -536.9375 493.3125 C-536.88924072 492.33949951 -536.84098145 491.36649902 -536.79125977 490.36401367 C-536.27410926 480.70990547 -535.3049568 471.19189686 -533.875 461.625 C-533.76901489 460.90927826 -533.66302979 460.19355652 -533.55383301 459.45614624 C-526.07075732 409.49219396 -511.21882952 361.53138885 -490.9375 315.3125 C-490.55352051 314.4364209 -490.16954102 313.5603418 -489.77392578 312.65771484 C-484.66694558 301.13095005 -478.63441781 290.10301884 -472.49316406 279.10009766 C-471.47547025 277.27649 -470.46163673 275.45072132 -469.45214844 273.62255859 C-461.94980611 260.0455772 -453.75592948 247.07239812 -444.9375 234.3125 C-444.48133301 233.65169434 -444.02516602 232.99088867 -443.55517578 232.31005859 C-434.19069088 218.81958381 -424.21112818 205.7531275 -413.49609375 193.30859375 C-411.02425417 190.41408847 -408.63211933 187.46848717 -406.25 184.5 C-403.05581705 180.57132578 -399.72695732 176.94160728 -396.0546875 173.45703125 C-394.18549297 171.56369584 -392.45852346 169.62353557 -390.72265625 167.609375 C-386.83339371 163.131034 -382.70412593 158.93142138 -378.5 154.75 C-377.78779297 154.03392578 -377.07558594 153.31785156 -376.34179688 152.58007812 C-372.2718069 148.51748141 -368.10421142 144.63224364 -363.74829102 140.87817383 C-361.32538923 138.78324743 -358.9775901 136.6108103 -356.625 134.4375 C-351.2225248 129.51672698 -345.63512419 124.8854951 -339.9375 120.3125 C-338.80551214 119.38860551 -337.67402513 118.4640971 -336.54296875 117.5390625 C-316.26067268 101.02728122 -294.57569335 86.39746593 -271.9375 73.3125 C-271.07656738 72.81169922 -270.21563477 72.31089844 -269.32861328 71.79492188 C-208.87796589 36.77922802 -142.16018408 13.96833363 -72.9375 4.5 C-72.22118408 4.40063141 -71.50486816 4.30126282 -70.7668457 4.19888306 C-47.24123325 0.98137766 -23.72864016 -0.06857042 0 0 Z M-300.9375 193.3125 C-301.80117188 194.07691406 -302.66484375 194.84132813 -303.5546875 195.62890625 C-306.03115341 197.8403191 -308.48742191 200.07189423 -310.9375 202.3125 C-311.4413623 202.77124512 -311.94522461 203.22999023 -312.46435547 203.70263672 C-321.73908475 212.15269798 -330.9479404 220.65357626 -339.109375 230.20703125 C-341.2477087 232.66977028 -343.46834599 235.04737343 -345.6875 237.4375 C-350.92536608 243.18888236 -355.72090762 249.22136893 -360.45605469 255.38964844 C-361.99378759 257.38555884 -363.54671349 259.36896441 -365.1015625 261.3515625 C-423.05861645 335.64678731 -451.44791222 423.47455541 -459.68170166 516.44580078 C-460.13605503 521.53768075 -460.60602475 526.62812734 -461.07421875 531.71875 C-462.04089811 542.24890816 -462.99347871 552.7802882 -463.9375 563.3125 C-464.76339127 563.41414963 -465.58928253 563.51579926 -466.44020081 563.62052917 C-474.3369505 564.59438589 -482.23232375 565.57865705 -490.12642002 566.57380199 C-494.18201209 567.08470733 -498.23798055 567.59198087 -502.29516602 568.09008789 C-550.04302958 573.95980864 -594.97542271 584.9331558 -632.9375 616.3125 C-633.98806333 617.15912465 -635.03884844 618.00547417 -636.08984375 618.8515625 C-649.03605425 629.40688597 -660.75438177 641.16558436 -670.67871094 654.61376953 C-671.90422711 656.26759838 -673.15646464 657.89784344 -674.4140625 659.52734375 C-707.94584025 703.77998524 -719.4276335 760.98106605 -712.9375 815.3125 C-709.91017067 836.74457077 -703.59459554 857.95161528 -693.9375 877.3125 C-693.54127441 878.11059082 -693.14504883 878.90868164 -692.73681641 879.73095703 C-683.33320251 898.49773127 -671.8651878 915.28146968 -657.48046875 930.55859375 C-655.69110192 932.49638732 -653.9985855 934.42477184 -652.33203125 936.4609375 C-649.187895 940.20517805 -645.6587896 943.16091923 -641.9375 946.3125 C-641.02226563 947.1271875 -640.10703125 947.941875 -639.1640625 948.78125 C-601.96060644 981.6307907 -551.47936197 1000.56356978 -501.88202477 1000.4401505 C-500.44933595 1000.44262667 -500.44933595 1000.44262667 -498.98770393 1000.44515286 C-495.79837719 1000.44945474 -492.60909715 1000.44668383 -489.41976929 1000.44392776 C-487.09573724 1000.44557849 -484.77170546 1000.44766526 -482.44767416 1000.45014787 C-476.71821595 1000.45512619 -470.98877053 1000.45546563 -465.2593107 1000.45385885 C-458.34591358 1000.45218391 -451.43252292 1000.45633281 -444.51912737 1000.4606343 C-431.59910216 1000.46849955 -418.6790797 1000.47159593 -405.75905228 1000.47208023 C-392.66645803 1000.47258282 -379.57386688 1000.47523175 -366.48127365 1000.48048782 C-365.24059037 1000.48098302 -365.24059037 1000.48098302 -363.97484279 1000.48148823 C-360.60603847 1000.48283825 -357.23723416 1000.48420092 -353.86842985 1000.48558033 C-313.9932573 1000.50187887 -274.11808535 1000.50826862 -234.24291004 1000.5130282 C-214.38316777 1000.51541206 -194.52342584 1000.51911568 -174.66368383 1000.5230653 C-110.94590865 1000.53573002 -47.22813349 1000.54651342 16.48964293 1000.54990576 C19.53477139 1000.550068 22.57989985 1000.55023356 25.62502831 1000.55040014 C31.73199062 1000.55073394 37.83895292 1000.55106442 43.94591522 1000.5513947 C51.09554801 1000.5517816 58.2451808 1000.5521712 65.39481358 1000.55256577 C67.4410898 1000.55267818 69.48736603 1000.5527896 71.53364225 1000.55290002 C137.23595731 1000.55644853 202.93826142 1000.571523 268.64057231 1000.59483776 C315.85430416 1000.61158498 363.06803394 1000.62705683 410.2817688 1000.63157272 C411.25325481 1000.63166621 412.22474081 1000.6317597 413.22566579 1000.63185601 C434.55497678 1000.63387531 455.88428774 1000.63503115 477.21359882 1000.6353846 C484.84628089 1000.63552077 492.47896297 1000.63572976 500.11164504 1000.63597785 C502.01041506 1000.63603941 503.90918507 1000.63609773 505.80795509 1000.6361528 C536.03400265 1000.63707171 566.26003877 1000.64702902 596.48608257 1000.66161029 C626.94350726 1000.67624433 657.40091794 1000.68125697 687.85834553 1000.67319075 C692.07351589 1000.67207547 696.28868626 1000.67106478 700.50385666 1000.67011642 C701.7432117 1000.66983147 701.7432117 1000.66983147 703.00760422 1000.66954076 C716.05432134 1000.66681438 729.10101243 1000.67412569 742.1477239 1000.68568979 C754.99822639 1000.69686884 767.84869232 1000.69722376 780.69919542 1000.68631961 C787.56435038 1000.68078435 794.42941028 1000.68019497 801.29455876 1000.69282833 C807.55535896 1000.70425297 813.81599696 1000.70154974 820.07679181 1000.68816125 C822.31285861 1000.68575046 824.54893827 1000.68822776 826.78499086 1000.69655773 C891.72787684 1000.92234181 952.62345043 979.38688177 1000.74609375 935.40625 C1002.73098405 933.61215017 1004.75670011 931.89848419 1006.8125 930.1875 C1029.16046044 910.58244818 1046.45587488 884.5239632 1060.0625 858.3125 C1060.4126416 857.63960937 1060.7627832 856.96671875 1061.12353516 856.2734375 C1093.48190583 793.13515327 1096.81773231 718.13003427 1075.4375 651.125 C1071.47219397 639.15829361 1066.53658737 627.66093059 1061.0625 616.3125 C1060.71493652 615.58998047 1060.36737305 614.86746094 1060.00927734 614.12304688 C1049.75257824 593.11312123 1035.91846897 573.68923478 1020.0859375 556.5234375 C1018.3065646 554.57918063 1016.62161974 552.58857298 1014.9375 550.5625 C974.76306784 504.63560874 911.59545123 476.21023658 851.41313171 472.13301086 C848.7680552 471.99385901 846.12324207 471.87768635 843.4765625 471.7734375 C842.49743393 471.73295792 841.51830536 471.69247833 840.50950623 471.65077209 C828.71857173 471.18650525 816.92258473 470.96597611 805.125 470.75 C802.86913574 470.70663361 800.61327632 470.66301488 798.35742188 470.61914062 C792.92583322 470.51403512 787.49419447 470.41197909 782.0625 470.3125 C781.76635048 469.32675995 781.76635048 469.32675995 781.46421814 468.32110596 C779.57251079 462.02746482 777.67636133 455.73517975 775.77561092 449.44426346 C774.79933553 446.21255572 773.82508556 442.98027148 772.85375977 439.74707031 C767.3247273 421.33235331 767.3247273 421.33235331 761.26953125 403.0859375 C761.0057518 402.32524963 760.74197235 401.56456177 760.47019958 400.78082275 C746.88856089 362.57770455 719.36161495 326.53384434 686.74951172 302.55517578 C685.09148451 301.33385039 683.45373502 300.08872084 681.81640625 298.83984375 C656.5231718 279.84641119 627.12042134 267.41878988 596.375 260.5625 C595.48554687 260.36358154 594.59609375 260.16466309 593.6796875 259.9597168 C579.07047753 256.87063221 564.75668502 255.93402707 549.875 256 C549.01843811 256.00182281 548.16187622 256.00364563 547.27935791 256.00552368 C534.31987373 256.05188846 521.77377087 256.60161604 509.0625 259.3125 C508.23298828 259.47878906 507.40347656 259.64507812 506.54882812 259.81640625 C479.47704448 265.31631715 455.10477308 276.58290739 430.27008057 288.27386475 C425.63762469 290.45336934 421.00061853 292.62307448 416.35864258 294.78222656 C414.13296647 295.81842944 411.90998436 296.86044532 409.69018555 297.90917969 C408.71734619 298.36325195 407.74450684 298.81732422 406.7421875 299.28515625 C405.48510986 299.87695679 405.48510986 299.87695679 404.20263672 300.48071289 C402.0625 301.3125 402.0625 301.3125 399.0625 301.3125 C397.75073242 300.02172852 397.75073242 300.02172852 396.41796875 298.19140625 C395.91313965 297.51182861 395.40831055 296.83225098 394.88818359 296.13208008 C394.07728271 295.01482544 394.07728271 295.01482544 393.25 293.875 C392.08221183 292.30521621 390.91154911 290.73756747 389.73828125 289.171875 C389.13322754 288.36427734 388.52817383 287.55667969 387.90478516 286.72460938 C385.01538866 282.94151405 381.98435332 279.28164482 378.9375 275.625 C374.63566475 270.44987322 370.38974155 265.24337625 366.25 259.9375 C359.5506329 251.36119678 352.74490194 242.93060633 345.3984375 234.89453125 C344.1481925 233.51257148 342.90333893 232.12501897 341.69726562 230.7043457 C336.30950763 224.38671661 330.47081901 218.53471313 324.60302734 212.66772461 C322.82488228 210.88739748 321.05490439 209.09921623 319.28515625 207.31054688 C313.30174618 201.29780636 307.24519188 195.62018843 300.58862305 190.34228516 C298.13696612 188.37233487 295.80176535 186.3196145 293.47265625 184.20703125 C289.00822488 180.19865993 284.31705073 176.57251528 279.5 173 C278.62722412 172.35047363 277.75444824 171.70094727 276.85522461 171.03173828 C229.20182963 135.74935422 176.23624684 109.89642985 119.0625 94.3125 C118.02996094 94.02826172 116.99742187 93.74402344 115.93359375 93.45117188 C90.06780797 86.45358315 62.80892573 82.01869173 36.0625 80.3125 C34.83249268 80.22782471 33.60248535 80.14314941 32.33520508 80.0559082 C21.96881759 79.36916604 11.63788887 79.11023826 1.25 79.125 C0.05286377 79.12590637 0.05286377 79.12590637 -1.16845703 79.12683105 C-105.53403464 79.3391246 -208.36959736 116.86501082 -300.9375 193.3125 Z " fill="#5BBCB9" transform="translate(812.9375,10.6875)"/>
</svg>
