<?xml version="1.0" encoding="UTF-8"?>
<svg version="1.1" xmlns="http://www.w3.org/2000/svg" width="2000" height="436">
<path d="M0 0 C0.87011719 0.6496875 1.74023438 1.299375 2.63671875 1.96875 C32.22072868 25.11769792 53.11440704 58.37402876 58 96 C58.80230259 102.98767351 59.43579387 109.98946031 60 117 C60.42845215 116.61400635 60.8569043 116.2280127 61.29833984 115.83032227 C78.47425087 100.68352392 101.27291127 93.57632132 124 95 C149.90431742 97.8675656 169.80550098 108.88415351 186.8125 128.25 C199.29397021 144.17305207 205.68235468 164.87053708 205 185 C206.08796875 185.17015625 207.1759375 185.3403125 208.296875 185.515625 C231.44441887 189.26956656 251.05660154 198.03604318 265.875 216.75 C279.29899927 235.89857251 285.28728408 257.57746912 282.5390625 280.9140625 C279.21368921 299.49703086 271.00769749 314.38402889 258 328 C257.44828125 328.62648438 256.8965625 329.25296875 256.328125 329.8984375 C244.02913716 343.35426083 224.8076561 349.88915416 207 351 C200.49191165 351.18966862 193.97827277 351.13947679 187.46813965 351.13371277 C185.46768415 351.13558237 183.46722902 351.13788367 181.46677446 351.14057809 C175.98294997 351.14668421 170.49914074 351.14656389 165.01531363 351.14538372 C159.09552368 351.14517941 153.1757386 351.15070142 147.25595093 351.15544128 C135.66204713 351.16374226 124.06814804 351.16650886 112.47424155 351.16705366 C103.04671553 351.16751376 93.61919114 351.16957498 84.19166565 351.17275429 C81.47483206 351.17365188 78.75799847 351.1745417 76.04116488 351.17542917 C75.36568331 351.17565021 74.69020175 351.17587126 73.99425105 351.17609901 C55.00007123 351.18225119 36.00589198 351.18619979 17.01171112 351.18575573 C16.29595513 351.18574015 15.58019913 351.18572457 14.84275356 351.18570852 C11.2152822 351.18562542 7.58781085 351.18552638 3.96033949 351.18542381 C3.23995576 351.18540387 2.51957203 351.18538392 1.77735849 351.18536337 C0.32056648 351.18532294 -1.13622553 351.18528114 -2.59301754 351.18523798 C-25.24528635 351.18462558 -47.89754017 351.19212616 -70.54980469 351.20581055 C-96.02090284 351.22119159 -121.49199115 351.22977552 -146.96309423 351.22884732 C-149.68244267 351.2287727 -152.40179109 351.22872399 -155.12113953 351.22869301 C-156.1254383 351.22867553 -156.1254383 351.22867553 -157.15002594 351.22865769 C-167.23245344 351.22862889 -177.3148691 351.23393201 -187.39729309 351.24202538 C-198.87507813 351.25114571 -210.35283861 351.25329309 -221.83062571 351.24651595 C-227.68191225 351.24325829 -233.53315173 351.24316675 -239.38443375 351.2518692 C-244.75123181 351.25976866 -250.11794577 351.25826778 -255.48474187 351.24958507 C-257.41611016 351.24805762 -259.34748485 351.24983742 -261.27884561 351.25544515 C-296.53348134 351.35094699 -326.10940873 343.7547875 -353 320 C-353.68320312 319.40058594 -354.36640625 318.80117188 -355.0703125 318.18359375 C-376.5229931 298.077134 -389.18635082 267.84224531 -390.24609375 238.69140625 C-390.90462087 205.96496019 -380.42832884 175.5562512 -357.6484375 151.74609375 C-356.77445312 150.83988281 -355.90046875 149.93367187 -355 149 C-353.99839844 147.90365234 -353.99839844 147.90365234 -352.9765625 146.78515625 C-335.27250982 127.92324358 -307.84481762 116.86484204 -282.35546875 115.6796875 C-263.94133058 115.16731481 -247.06488436 118.10623877 -230 125 C-229.97812622 124.1495813 -229.97812622 124.1495813 -229.95581055 123.28198242 C-228.8699687 85.14706332 -219.51360165 51.2403075 -194 22 C-193.39414063 21.27296875 -192.78828125 20.5459375 -192.1640625 19.796875 C-188.14816838 15.03595075 -183.82505715 10.93242158 -179 7 C-178.0409375 6.21496094 -177.081875 5.42992187 -176.09375 4.62109375 C-168.49351667 -1.47388713 -160.58054528 -6.40992517 -152 -11 C-151.21882812 -11.44859375 -150.43765625 -11.8971875 -149.6328125 -12.359375 C-104.00889793 -37.36322853 -41.06638329 -31.03067044 0 0 Z " fill="#5BBDB8" transform="translate(410,30)"/>
<path d="M0 0 C13.55582788 12.90531601 22.62777222 30.6302329 26 49 C26 49.99 26 50.98 26 52 C21.6274696 52.98614352 17.25326548 53.96439439 12.87744141 54.93579102 C11.39324964 55.26638001 9.9095115 55.59901323 8.42626953 55.93383789 C0.30452338 57.76574894 -7.67236592 59.41690136 -16 60 C-16.34611328 58.25976562 -16.34611328 58.25976562 -16.69921875 56.484375 C-20.07405975 40.07493685 -24.45231268 25.84460526 -38.56640625 15.5625 C-55.81621869 4.48717901 -77.96091949 3.36430874 -97.625 7.625 C-111.10790706 10.89099083 -121.53037792 17.20327596 -130.4375 27.9375 C-135.91683347 38.67699361 -137.17011746 51.43210366 -133.4375 63 C-128.83603136 73.57863409 -120.38004335 79.51215453 -110 84 C-95.4295896 89.70786824 -79.96348156 92.69720181 -64.75610352 96.19238281 C-34.65476531 103.13516781 -2.52701221 111.0134841 16 138 C20.8797595 146.24052771 24.2986673 154.54059018 26 164 C26.13019531 164.72058594 26.26039063 165.44117188 26.39453125 166.18359375 C29.49026612 188.01884372 25.93235091 211.82150674 13 230 C-2.43948971 249.76279565 -24.74375985 260.15624296 -49.19921875 263.6640625 C-50.12347656 263.77492188 -51.04773438 263.88578125 -52 264 C-52.91394531 264.11085938 -53.82789063 264.22171875 -54.76953125 264.3359375 C-80.83231945 266.97430457 -108.19915973 264.52184522 -132 253 C-133.06605469 252.48695313 -134.13210938 251.97390625 -135.23046875 251.4453125 C-142.98911774 247.49777011 -149.53595643 242.81459492 -156 237 C-157.06154297 236.06220703 -157.06154297 236.06220703 -158.14453125 235.10546875 C-175.20396264 219.12276676 -185.35024424 194.90931529 -188 172 C-182.52008169 170.85562384 -177.03912013 169.71643591 -171.55712891 168.58203125 C-169.69257537 168.19543396 -167.82831427 167.80742342 -165.96435547 167.41796875 C-163.28428666 166.85825273 -160.60320545 166.3036363 -157.921875 165.75 C-157.08944275 165.57500977 -156.2570105 165.40001953 -155.39935303 165.21972656 C-154.61884583 165.05956055 -153.83833862 164.89939453 -153.03417969 164.734375 C-152.35023132 164.59225586 -151.66628296 164.45013672 -150.96160889 164.30371094 C-149 164 -149 164 -145 164 C-144.93530518 164.56283691 -144.87061035 165.12567383 -144.80395508 165.70556641 C-142.27767599 186.98702819 -137.44336902 206.80635452 -120 221 C-110.90172613 227.36658874 -101.86095635 230.77501241 -91 233 C-90.08089844 233.19207031 -89.16179687 233.38414062 -88.21484375 233.58203125 C-69.28928159 236.04258429 -47.42991185 234.51571494 -31.5625 223 C-20.63351888 214.09907723 -13.87571232 203.09463826 -12 189 C-11.17462002 175.88915653 -12.62209092 163.56424938 -21 153 C-36.91663777 137.11494286 -62.07556913 134.14528678 -83.0625 129.5 C-102.67035635 125.15316568 -121.39117354 121.00197211 -139 111 C-140.04027344 110.41089844 -141.08054687 109.82179687 -142.15234375 109.21484375 C-156.32310882 100.68128289 -165.95695441 87.85994326 -170.34375 71.9375 C-174.90734496 51.50997969 -172.89136731 30.00514301 -162.21386719 11.88232422 C-148.93929865 -8.70233455 -125.66018048 -17.62573001 -102.8046875 -22.7109375 C-100.20728073 -23.22153883 -97.62269913 -23.64367753 -95 -24 C-93.79150391 -24.16628906 -93.79150391 -24.16628906 -92.55859375 -24.3359375 C-59.4894828 -28.07198973 -25.49565547 -22.50627269 0 0 Z " fill="#153E3B" transform="translate(970,93)"/>
<path d="M0 0 C10.75500005 9.79249032 15.84376315 23.37902744 18.8828125 37.265625 C19.0556778 38.0465451 19.22854309 38.82746521 19.40664673 39.63204956 C21.43661995 50.55474873 21.19453903 61.55851492 21.21833801 72.6301899 C21.2266957 76.39198308 21.24725815 80.15354144 21.27087402 83.91526794 C21.32290733 92.56500902 21.35741728 101.21478864 21.39063263 109.86461639 C21.42379805 118.45767627 21.46456517 127.05060735 21.51875305 135.64356804 C21.53882494 139.35065653 21.54713737 143.05765428 21.55505371 146.76478577 C21.56801996 149.0275201 21.58153936 151.29025136 21.59570312 153.55297852 C21.59472122 154.58415802 21.59373932 155.61533752 21.59272766 156.67776489 C21.60100082 157.62369003 21.60927399 158.56961517 21.61779785 159.54420471 C21.62219753 160.77435979 21.62219753 160.77435979 21.6266861 162.02936649 C21.91321744 164.53109276 22.54870229 166.13837533 23.8828125 168.265625 C27.17906546 169.91375148 30.87739725 169.64811831 34.5078125 169.828125 C37.2715625 169.9725 40.0353125 170.116875 42.8828125 170.265625 C42.8828125 179.505625 42.8828125 188.745625 42.8828125 198.265625 C38.3040625 198.348125 33.7253125 198.430625 29.0078125 198.515625 C27.58484863 198.55204102 26.16188477 198.58845703 24.69580078 198.62597656 C13.79002884 198.72050443 5.63646478 196.79991566 -2.36328125 189.171875 C-8.22203044 182.80423668 -10.06611807 176.7996813 -11.1171875 168.265625 C-11.46910156 168.7503125 -11.82101562 169.235 -12.18359375 169.734375 C-25.59154963 187.93838821 -41.92619031 198.72518973 -64.3671875 202.66015625 C-84.20987856 205.39582138 -105.2302283 202.40804676 -122.1171875 191.265625 C-135.62894843 180.76528293 -144.57838588 167.3732421 -147.1171875 150.265625 C-148.63467296 133.45284958 -145.73956381 117.12757957 -135.01171875 103.61328125 C-115.32413478 81.0792996 -88.2153955 72.67951069 -59.10546875 70.5703125 C-43.14757515 69.702156 -27.09164375 70.11714228 -11.1171875 70.265625 C-11.23907993 67.27680001 -11.37073311 64.28891763 -11.5078125 61.30078125 C-11.54084473 60.4663147 -11.57387695 59.63184814 -11.60791016 58.77209473 C-12.25004796 45.27737212 -15.25701617 30.60881314 -25.2421875 20.890625 C-35.47142691 12.4374138 -48.35538208 11.55590565 -61.1171875 12.265625 C-73.14836549 13.79052189 -83.97470401 17.44995376 -91.69140625 27.2109375 C-97.40165841 35.43995842 -99.18900021 44.56350861 -101.1171875 54.265625 C-106.22687308 53.14931554 -111.33547384 52.02821357 -116.44311523 50.90258789 C-118.18208054 50.5200708 -119.92133868 50.13888248 -121.66088867 49.7590332 C-124.15621232 49.21391408 -126.6504558 48.66407914 -129.14453125 48.11328125 C-130.3179734 47.85853783 -130.3179734 47.85853783 -131.51512146 47.59864807 C-137.00331579 46.37949671 -137.00331579 46.37949671 -138.1171875 45.265625 C-138.9235608 31.74207272 -131.45458929 19.8754009 -123.09375 9.8359375 C-93.45630031 -22.00504005 -33.65563363 -27.57029766 0 0 Z M-102.32421875 117.046875 C-109.75078432 126.23704764 -110.96057201 135.77603897 -110.1171875 147.265625 C-108.46028478 155.49737101 -104.53831357 161.87271846 -98.1171875 167.265625 C-86.00346357 175.23878228 -73.22876648 176.33292638 -59.1171875 174.265625 C-43.69670473 170.58366576 -31.3384307 162.10989568 -22.640625 148.77734375 C-21.88652344 147.53404297 -21.88652344 147.53404297 -21.1171875 146.265625 C-20.42496094 145.13060547 -20.42496094 145.13060547 -19.71875 143.97265625 C-13.26553849 132.29820997 -10.89780039 118.01871037 -11.0546875 104.828125 C-11.05919922 104.09658203 -11.06371094 103.36503906 -11.06835938 102.61132812 C-11.08000602 100.82939081 -11.09793559 99.04749637 -11.1171875 97.265625 C-17.35698935 97.19047452 -23.59651759 97.13655887 -29.83666992 97.10083008 C-31.95162556 97.08590778 -34.06655118 97.06556263 -36.18139648 97.03930664 C-60.42095827 96.74629464 -84.52166619 98.56917574 -102.32421875 117.046875 Z " fill="#153E3B" transform="translate(1390.1171875,154.734375)"/>
<path d="M0 0 C5.98895114 5.64086009 10.05987845 11.29645049 13.43359375 18.78125 C13.88476562 19.76738281 14.3359375 20.75351563 14.80078125 21.76953125 C22.10379738 39.1195962 21.87424684 56.93534239 21.875 75.421875 C21.88679387 77.96393587 21.90016295 80.50598987 21.9150238 83.04803467 C21.95461044 90.36410003 21.97452902 97.68012867 21.99119568 104.99626923 C22.01524248 114.98689041 22.05467273 124.97738045 22.10847282 134.96788788 C22.1247806 138.68437381 22.12857561 142.40073128 22.13148499 146.11724854 C22.14125718 148.38708725 22.15151978 150.65692392 22.16235352 152.92675781 C22.15980057 153.9574086 22.15724762 154.98805939 22.15461731 156.04994202 C22.16144531 156.99987534 22.16827332 157.94980865 22.17530823 158.92852783 C22.17775968 160.16056883 22.17775968 160.16056883 22.18026066 161.41749954 C22.47625367 164.17929278 23.21178923 166.2919242 24.43359375 168.78125 C27.72984671 170.42937648 31.4281785 170.16374331 35.05859375 170.34375 C37.82234375 170.488125 40.58609375 170.6325 43.43359375 170.78125 C43.43359375 180.02125 43.43359375 189.26125 43.43359375 198.78125 C39.04046875 198.86375 34.64734375 198.94625 30.12109375 199.03125 C28.75944092 199.06766602 27.39778809 199.10408203 25.99487305 199.14160156 C15.03189945 199.24031689 6.12066567 197.34333503 -1.91796875 189.55078125 C-7.44842495 183.61405931 -8.90607028 177.55464112 -10.56640625 169.78125 C-11.10007812 170.47089844 -11.63375 171.16054688 -12.18359375 171.87109375 C-26.60916256 190.06528001 -43.90805442 200.76451553 -67.1015625 203.50390625 C-87.96510207 205.17393027 -108.35489414 201.92753401 -125.15625 188.75 C-138.72957169 177.15654629 -145.33072488 162.43833205 -146.8203125 144.76953125 C-147.45710484 128.06913849 -141.72104902 112.20445999 -130.56640625 99.78125 C-110.24294231 78.51081463 -79.95610176 71.76334068 -51.56640625 70.78125 C-37.90249829 70.52747024 -24.2311295 70.65423627 -10.56640625 70.78125 C-10.68528539 67.62837473 -10.81987956 64.47634783 -10.95703125 61.32421875 C-10.99006348 60.44310425 -11.0230957 59.56198975 -11.05712891 58.6541748 C-11.6419695 45.70114927 -14.36148039 33.16008075 -22.87890625 23.03125 C-33.91426486 13.79234512 -46.33782994 11.63983674 -60.56640625 12.78125 C-69.09092497 13.9486204 -76.43886717 15.88661217 -83.56640625 20.78125 C-85.11328125 21.8021875 -85.11328125 21.8021875 -86.69140625 22.84375 C-94.52410864 29.73565294 -97.64582012 40.16639861 -99.609375 49.9921875 C-99.87850708 51.33869385 -99.87850708 51.33869385 -100.15307617 52.71240234 C-100.2894751 53.39512207 -100.42587402 54.0778418 -100.56640625 54.78125 C-105.67609183 53.66494054 -110.78469259 52.54383857 -115.89233398 51.41821289 C-117.63129929 51.0356958 -119.37055743 50.65450748 -121.11010742 50.2746582 C-123.60543107 49.72953908 -126.09967455 49.17970414 -128.59375 48.62890625 C-129.76719215 48.37416283 -129.76719215 48.37416283 -130.96434021 48.11427307 C-136.45253454 46.89512171 -136.45253454 46.89512171 -137.56640625 45.78125 C-138.00868775 30.71208751 -128.78035244 17.6772071 -118.9609375 7.125 C-90.12814469 -21.09633065 -31.18795026 -26.96309855 0 0 Z M-100.94140625 117.15625 C-108.47400914 126.05841705 -110.32721547 135.36911176 -109.56640625 146.78125 C-108.05542909 155.71906407 -103.85271177 162.31501597 -96.87890625 168.03125 C-86.10006159 175.49509149 -73.17350064 176.89792253 -60.37890625 175.15625 C-44.96405548 172.04841718 -31.24905672 163.59194963 -22.36328125 150.546875 C-17.72458475 143.03030197 -14.64256672 135.3934712 -12.56640625 126.78125 C-12.24736328 125.481875 -12.24736328 125.481875 -11.921875 124.15625 C-10.67563251 118.27470272 -10.31794914 112.40577385 -10.015625 106.41796875 C-9.97159546 105.58567749 -9.92756592 104.75338623 -9.88220215 103.89587402 C-9.77470325 101.8577826 -9.67024648 99.81953111 -9.56640625 97.78125 C-15.94856869 97.70409651 -22.33060752 97.65219685 -28.71313477 97.61645508 C-30.87659193 97.60152804 -33.0400197 97.58117907 -35.20336914 97.55493164 C-59.17828286 97.27169777 -83.41033126 98.62432174 -100.94140625 117.15625 Z " fill="#153F3B" transform="translate(1175.56640625,154.21875)"/>
<path d="M0 0 C1.5778125 1.1446875 1.5778125 1.1446875 3.1875 2.3125 C13.13858161 11.82131132 20.91179922 24.47742387 24 38 C24 39.98 24 41.96 24 44 C12.12 46.31 0.24 48.62 -12 51 C-12.66 48.69 -13.32 46.38 -14 44 C-17.4027879 32.15211124 -21.10918947 23.77353383 -32.11328125 17.44140625 C-46.12653651 10.44425985 -64.01346767 11.15761935 -78.75 15.73046875 C-87.35268151 19.09089122 -93.07453053 22.98490948 -97.75 31 C-100.54386073 38.12434485 -100.09268672 46.49638024 -97.0625 53.4375 C-91.60218159 62.86341279 -80.02093875 66.96166294 -70.01049805 69.86791992 C-66.97443497 70.60944454 -63.93173063 71.28653618 -60.875 71.9375 C-59.76406982 72.18564453 -58.65313965 72.43378906 -57.50854492 72.68945312 C-52.84685887 73.73011629 -48.17975399 74.74489574 -43.51123047 75.75439453 C-17.91629153 81.31064277 -17.91629153 81.31064277 -6 87 C-5.01257812 87.46019531 -4.02515625 87.92039062 -3.0078125 88.39453125 C8.78012153 94.32115182 18.09808143 103.2668009 23.05859375 115.640625 C24.66824898 120.66213318 25.67628531 125.7322792 26 131 C26.07927734 132.17755859 26.07927734 132.17755859 26.16015625 133.37890625 C26.7596409 150.86821916 21.4557277 167.48553552 9.6875 180.5625 C-6.27787698 197.31673489 -29.49135354 202.92457406 -51.83203125 204.22265625 C-78.0998728 204.83477414 -104.53437055 198.55317807 -124 180 C-126.92165139 176.82473303 -129.51333365 173.52414966 -132 170 C-132.53238281 169.25492188 -133.06476563 168.50984375 -133.61328125 167.7421875 C-139.9889302 158.02220589 -144.57611858 145.65673906 -145 134 C-133.521798 130.74167169 -121.75361402 128.95545002 -110 127 C-109.79246094 128.14855469 -109.58492187 129.29710937 -109.37109375 130.48046875 C-106.61572938 144.75532232 -102.60731129 157.38533175 -90 166 C-75.8851293 174.67084624 -59.85528905 177.07819793 -43.625 174.25 C-31.92412385 171.40807866 -22.1423638 166.12398155 -15.21875 156.0078125 C-10.40649626 148.07993294 -9.98812828 140.20414087 -11 131 C-13.14590035 123.50921823 -17.60414584 118.28970713 -24 114 C-32.25219478 109.8316879 -40.65035607 107.74836003 -49.6875 106.0625 C-52.24407859 105.55766121 -54.80005997 105.0497897 -57.35546875 104.5390625 C-58.63083496 104.28543945 -59.90620117 104.03181641 -61.22021484 103.77050781 C-90.66050137 97.76911624 -90.66050137 97.76911624 -103 92 C-103.94488281 91.56171875 -104.88976563 91.1234375 -105.86328125 90.671875 C-118.37054137 84.37499715 -128.29997677 74.60625935 -132.9375 61.1875 C-135.99151287 47.92163158 -135.50816987 32.49369657 -130 20 C-129.67257812 19.20980469 -129.34515625 18.41960937 -129.0078125 17.60546875 C-122.29214238 3.61040439 -108.29269972 -5.20414707 -94.13037109 -10.22607422 C-63.62477785 -20.4150497 -26.68568399 -19.424588 0 0 Z " fill="#153E3B" transform="translate(1600,154)"/>
<path d="M0 0 C12.54 0 25.08 0 38 0 C39.09054687 3.15046875 40.18109375 6.3009375 41.3046875 9.546875 C41.68314316 10.64018631 42.06159882 11.73349762 42.45152283 12.85993958 C44.41376051 18.52860365 46.37596872 24.19727792 48.33813477 29.8659668 C52.03525206 40.5468417 55.73242149 51.22769842 59.43074036 61.90815735 C60.90026919 66.15208451 62.36964057 70.39606619 63.83901978 74.64004517 C64.57312549 76.76017185 65.30731781 78.88026855 66.04159546 81.00033569 C70.40757111 93.6061492 74.76488592 106.21488904 79.109375 118.828125 C80.38849739 122.53937277 81.66775785 126.25057291 82.947052 129.96176147 C83.75954656 132.32024846 84.57132098 134.67898368 85.3822937 137.03799438 C90.09722756 150.75300652 94.91416708 164.41778661 100 178 C100.17966812 177.48161057 100.35933624 176.96322113 100.54444885 176.42912292 C108.81210071 152.57598016 117.08721484 128.72554556 125.41085815 104.89187622 C130.50294218 90.31006857 135.56772837 75.71891386 140.625 61.125 C147.69283681 40.72959755 154.82888741 20.35936564 162 0 C174.54 0 187.08 0 200 0 C193.11862354 19.49723332 193.11862354 19.49723332 189.70703125 28.27734375 C189.32359558 29.2706369 188.94015991 30.26393005 188.54510498 31.287323 C187.72712218 33.40593334 186.9081256 35.52415252 186.08816528 37.64199829 C183.86038325 43.39715962 181.64134657 49.15569222 179.421875 54.9140625 C178.74004906 56.68246239 178.74004906 56.68246239 178.04444885 58.48658752 C173.51299086 70.24769477 169.03238583 82.02788116 164.5625 93.8125 C162.98848784 97.96101592 161.41425832 102.10944929 159.83984375 106.2578125 C159.44613083 107.29522583 159.05241791 108.33263916 158.64677429 109.40148926 C151.799794 127.43619075 144.90618011 145.45314865 138.02053833 163.47311401 C134.38385512 172.99178771 130.75399579 182.51305476 127.12513733 192.03471375 C123.62004702 201.22974667 120.10650352 210.42152579 116.58824158 219.61152649 C114.30948245 225.5662932 112.04106318 231.52480068 109.78492737 237.48817444 C108.51001042 240.8524767 107.22633028 244.21338258 105.94015503 247.57339478 C105.36695306 249.07658748 104.79754641 250.58123444 104.23245239 252.0874939 C98.96694622 266.11425371 93.35788135 276.77792694 79.3125 283.375 C73.07782007 286.0755205 66.77661809 286.14070839 60.1015625 286.09765625 C59.26660248 286.0962413 58.43164246 286.09482635 57.57138062 286.09336853 C54.92254958 286.08780174 52.2738052 286.07525547 49.625 286.0625 C47.82161581 286.0574807 46.01823029 286.05291855 44.21484375 286.04882812 C39.80983614 286.03869701 35.4050143 286.0191153 31 286 C31 276.76 31 267.52 31 258 C33.40796875 257.93941406 35.8159375 257.87882812 38.296875 257.81640625 C40.6334939 257.7545669 42.97006673 257.69119993 45.30664062 257.62768555 C46.92834357 257.58442069 48.55008958 257.54273972 50.171875 257.50268555 C52.50534027 257.44477786 54.83859043 257.38114302 57.171875 257.31640625 C57.89493835 257.29969376 58.61800171 257.28298126 59.36297607 257.26576233 C64.32816793 257.30282145 64.32816793 257.30282145 69 256 C70.194203 253.80896437 70.194203 253.80896437 71 251 C71.41338623 249.90502197 71.82677246 248.81004395 72.25268555 247.68188477 C73.48143732 244.36106876 74.69880896 241.03662822 75.90551758 237.70776367 C76.42689669 236.27743017 76.95359791 234.84902547 77.4855957 233.42260742 C78.25771555 231.35017569 79.01138544 229.27180958 79.76171875 227.19140625 C80.21506592 225.95592041 80.66841309 224.72043457 81.13549805 223.44750977 C82.77264714 216.91879406 80.2520955 211.55223829 77.921875 205.50390625 C77.60355713 204.66440933 77.28523926 203.82491241 76.95727539 202.9599762 C75.89352851 200.1587517 74.82178509 197.36065783 73.75 194.5625 C72.98683931 192.55795706 72.2241552 190.55323263 71.46191406 188.54833984 C69.40597152 183.14518191 67.34296172 177.74474864 65.27832031 172.34490967 C63.5865194 167.91806832 61.8983761 163.48983653 60.21031189 159.06156921 C55.83100384 147.5735178 51.44395783 136.08843573 47.05345154 124.60466003 C43.90939192 116.38063937 40.76819538 108.15553029 37.62890625 99.9296875 C29.46586704 78.54051008 21.29975778 57.15250174 13.11727905 35.77075195 C12.34181988 33.74415552 11.56660506 31.71746557 10.79165649 29.69067383 C9.72513522 26.90156791 8.65762582 24.11284218 7.58984375 21.32421875 C7.28350006 20.52255783 6.97715637 19.72089691 6.66152954 18.89494324 C4.75519995 13.92053566 2.78172177 8.97919598 0.74879456 4.05500793 C0 2 0 2 0 0 Z " fill="#153E3B" transform="translate(1776,143)"/>
<path d="M0 0 C1.64518093 0.0050242 3.29036335 0.00958548 4.93554688 0.01367188 C8.93626497 0.02374925 12.93677425 0.0433374 16.9375 0.0625 C16.9375 9.3025 16.9375 18.5425 16.9375 28.0625 C13.34294922 28.13597656 13.34294922 28.13597656 9.67578125 28.2109375 C7.34572296 28.26500296 5.01576444 28.32228849 2.68579102 28.37988281 C1.0709583 28.41808072 -0.54395684 28.45294945 -2.15893555 28.484375 C-4.48516217 28.53022609 -6.81082592 28.58818584 -9.13671875 28.6484375 C-10.21357185 28.66576431 -10.21357185 28.66576431 -11.31217957 28.68344116 C-15.27443375 28.79916295 -18.63045254 28.9890287 -22.0625 31.0625 C-25.02338957 35.58586279 -24.41525873 41.39137437 -24.4765625 46.61328125 C-24.49420654 47.51252319 -24.51185059 48.41176514 -24.5300293 49.33825684 C-24.59289213 52.68365907 -24.63921966 56.02935554 -24.6875 59.375 C-24.81125 66.861875 -24.935 74.34875 -25.0625 82.0625 C-9.5525 82.0625 5.9575 82.0625 21.9375 82.0625 C21.9375 91.3025 21.9375 100.5425 21.9375 110.0625 C6.4275 110.0625 -9.0825 110.0625 -25.0625 110.0625 C-25.0625 170.1225 -25.0625 230.1825 -25.0625 292.0625 C-35.9525 292.0625 -46.8425 292.0625 -58.0625 292.0625 C-58.0625 232.0025 -58.0625 171.9425 -58.0625 110.0625 C-68.6225 110.0625 -79.1825 110.0625 -90.0625 110.0625 C-90.0625 100.8225 -90.0625 91.5825 -90.0625 82.0625 C-79.5025 82.0625 -68.9425 82.0625 -58.0625 82.0625 C-58.10890625 78.60394531 -58.1553125 75.14539063 -58.203125 71.58203125 C-58.23441484 68.1928046 -58.25864891 64.80359471 -58.28222656 61.41430664 C-58.30221041 59.07796907 -58.32940688 56.74168067 -58.36425781 54.40551758 C-58.81176486 23.6130841 -58.81176486 23.6130841 -47.9375 10.5 C-34.34890168 -1.02076814 -16.74993966 -0.08919389 0 0 Z " fill="#153F3C" transform="translate(1737.0625,60.9375)"/>
<path d="M0 0 C0.66 0.33 1.32 0.66 2 1 C-2.95 5.95 -7.9 10.9 -13 16 C-13.66 15.67 -14.32 15.34 -15 15 C-13.25420935 13.0585604 -11.50362507 11.12184216 -9.75 9.1875 C-9.25886719 8.64029297 -8.76773438 8.09308594 -8.26171875 7.52929688 C-5.68270045 4.69237675 -3.19370806 2.16715904 0 0 Z " fill="#0D3130" transform="translate(824,88)"/>
<path d="M0 0 C0.66 0.33 1.32 0.66 2 1 C-2.95 5.95 -7.9 10.9 -13 16 C-13.66 15.67 -14.32 15.34 -15 15 C-13.25420935 13.0585604 -11.50362507 11.12184216 -9.75 9.1875 C-9.25886719 8.64029297 -8.76773437 8.09308594 -8.26171875 7.52929688 C-5.68270045 4.69237675 -3.19370806 2.16715904 0 0 Z " fill="#0D3330" transform="translate(1063,156)"/>
</svg>
